<svg width="29" height="28" viewBox="0 0 29 28" fill="none" xmlns="http://www.w3.org/2000/svg">
<path d="M27.249 6.02266C26.4249 6.3773 25.5586 6.62426 24.6714 6.75742C25.0862 6.68631 25.6965 5.9397 25.9394 5.6375C26.3085 5.18166 26.5898 4.66128 26.769 4.1028C26.769 4.06132 26.8105 4.00207 26.769 3.97244C26.7481 3.96103 26.7247 3.95505 26.7009 3.95505C26.6771 3.95505 26.6536 3.96103 26.6327 3.97244C25.6694 4.49413 24.6441 4.8923 23.5811 5.15754C23.5441 5.16885 23.5046 5.16987 23.467 5.16048C23.4295 5.15108 23.3951 5.13163 23.3678 5.10421C23.285 5.00568 23.196 4.91265 23.1011 4.82571C22.6676 4.43726 22.1757 4.11934 21.6435 3.88356C20.925 3.58881 20.149 3.46116 19.374 3.51025C18.622 3.55774 17.8878 3.75944 17.2171 4.1028C16.5567 4.4648 15.9762 4.95659 15.5106 5.54862C15.0208 6.15797 14.6673 6.86513 14.4736 7.62254C14.314 8.34299 14.2959 9.08761 14.4203 9.81497C14.4203 9.9394 14.4203 9.95718 14.3136 9.9394C10.0888 9.31723 6.62236 7.81808 3.78998 4.60054C3.66555 4.45833 3.60037 4.45833 3.49963 4.60054C2.26713 6.47299 2.86561 9.43574 4.40623 10.8993C4.61363 11.0949 4.82694 11.2845 5.05211 11.4623C4.34574 11.4121 3.65663 11.2207 3.0256 10.8993C2.90709 10.8223 2.84191 10.8638 2.83598 11.006C2.81918 11.2031 2.81918 11.4014 2.83598 11.5985C2.95962 12.5434 3.33199 13.4385 3.91501 14.1923C4.49803 14.946 5.27079 15.5314 6.15425 15.8886C6.36962 15.9808 6.59403 16.0503 6.82383 16.096C6.16991 16.2247 5.49923 16.2447 4.83879 16.1552C4.69658 16.1256 4.64325 16.2026 4.69658 16.3389C5.56763 18.7091 7.45786 19.432 8.84442 19.835C9.03404 19.8646 9.22365 19.8646 9.43697 19.912C9.43697 19.912 9.43697 19.912 9.40142 19.9475C8.99256 20.6942 7.33935 21.1978 6.58089 21.4585C5.1965 21.9558 3.72048 22.1459 2.25528 22.0155C2.02419 21.98 1.97086 21.9859 1.9116 22.0155C1.85235 22.0452 1.9116 22.1103 1.97678 22.1696C2.27306 22.3651 2.56933 22.537 2.87746 22.7029C3.79475 23.2032 4.76451 23.6007 5.76909 23.888C10.9717 25.322 16.826 24.2672 20.7309 20.386C23.8003 17.3403 24.8788 13.1392 24.8788 8.93207C24.8788 8.77208 25.0743 8.67727 25.1869 8.59432C25.9634 7.98926 26.6481 7.27471 27.2193 6.47299C27.3183 6.35349 27.369 6.20133 27.3616 6.04636C27.3616 5.95748 27.3616 5.97525 27.249 6.02266Z" fill="#CE7D63"/>
</svg>
