<svg width="98" height="18" viewBox="0 0 98 18" fill="none" xmlns="http://www.w3.org/2000/svg">
<path d="M97.6407 18H95.1679V7.10464H88.2767V18H85.8164V4.63184H88.2767V6.99167C88.2934 6.66531 88.3687 6.35987 88.5026 6.07535C88.6365 5.78246 88.8122 5.53142 89.0298 5.32221C89.2557 5.10464 89.5152 4.93728 89.808 4.82012C90.1009 4.6946 90.4147 4.63184 90.7495 4.63184H95.1679C95.511 4.63184 95.8331 4.69878 96.1344 4.83267C96.4357 4.9582 96.6951 5.13393 96.9126 5.35987C97.1386 5.57744 97.3143 5.83686 97.4398 6.13811C97.5737 6.43937 97.6407 6.76154 97.6407 7.10464V18Z" fill="#F3DFD8"/>
<path d="M81.6866 12.5774H72.8372V15.5272H81.6866V18H72.8372C72.5025 18 72.1845 17.9373 71.8832 17.8118C71.582 17.6779 71.3184 17.5021 71.0924 17.2846C70.8749 17.0586 70.6991 16.795 70.5652 16.4938C70.4397 16.1925 70.377 15.8703 70.377 15.5272V7.10464C70.377 6.76154 70.4397 6.43937 70.5652 6.13811C70.6991 5.83686 70.8749 5.57744 71.0924 5.35987C71.3184 5.13393 71.582 4.9582 71.8832 4.83267C72.1845 4.69878 72.5025 4.63184 72.8372 4.63184H79.2138C79.5569 4.63184 79.879 4.69878 80.1803 4.83267C80.4816 4.9582 80.741 5.13393 80.9585 5.35987C81.1845 5.57744 81.3602 5.83686 81.4857 6.13811C81.6196 6.43937 81.6866 6.76154 81.6866 7.10464V12.5774ZM72.8372 7.10464V10.1046H79.2138V7.10464H72.8372Z" fill="#F3DFD8"/>
<path d="M51.0967 2.57322C51.0967 2.22176 51.1636 1.89121 51.2975 1.58159C51.4314 1.2636 51.6155 0.991632 51.8498 0.76569C52.0841 0.531381 52.3561 0.34728 52.6657 0.213389C52.9837 0.0711297 53.3184 0 53.6699 0H63.4356C63.7871 0 64.1176 0.0711297 64.4272 0.213389C64.7452 0.34728 65.0214 0.531381 65.2557 0.76569C65.49 0.991632 65.6741 1.2636 65.808 1.58159C65.9419 1.89121 66.0088 2.22176 66.0088 2.57322V4.8954H63.4356V2.57322H53.6699V15.4268H63.4356V11.0586H58.5527V8.48536H66.0088V15.4268C66.0088 15.7782 65.9419 16.113 65.808 16.431C65.6741 16.7406 65.49 17.0126 65.2557 17.2469C65.0214 17.4812 64.7452 17.6653 64.4272 17.7992C64.1176 17.9331 63.7871 18 63.4356 18H53.6699C53.3184 18 52.9837 17.9331 52.6657 17.7992C52.3561 17.6653 52.0841 17.4812 51.8498 17.2469C51.6155 17.0126 51.4314 16.7406 51.2975 16.431C51.1636 16.113 51.0967 15.7782 51.0967 15.4268V2.57322Z" fill="#F3DFD8"/>
<path d="M47.7832 4.63184L42.9255 11.159L48.0092 18H45.0217L41.4318 13.1674L37.8292 18H34.8418L39.938 11.159L35.0803 4.63184H38.0552L41.4318 9.15066L44.7958 4.63184H47.7832Z" fill="#F3DFD8"/>
<path d="M32.0049 12.5774H23.1556V15.5272H32.0049V18H23.1556C22.8208 18 22.5028 17.9373 22.2016 17.8118C21.9003 17.6779 21.6367 17.5021 21.4108 17.2846C21.1932 17.0586 21.0175 16.795 20.8836 16.4938C20.7581 16.1925 20.6953 15.8703 20.6953 15.5272V7.10464C20.6953 6.76154 20.7581 6.43937 20.8836 6.13811C21.0175 5.83686 21.1932 5.57744 21.4108 5.35987C21.6367 5.13393 21.9003 4.9582 22.2016 4.83267C22.5028 4.69878 22.8208 4.63184 23.1556 4.63184H29.5321C29.8752 4.63184 30.1974 4.69878 30.4987 4.83267C30.7999 4.9582 31.0593 5.13393 31.2769 5.35987C31.5028 5.57744 31.6786 5.83686 31.8041 6.13811C31.938 6.43937 32.0049 6.76154 32.0049 7.10464V12.5774ZM23.1556 7.10464V10.1046H29.5321V7.10464H23.1556Z" fill="#F3DFD8"/>
<path d="M2.93357 18H0.360352V0H2.93357L13.7537 13.9582V0H16.3269V18H13.7537L2.93357 4.04184V18Z" fill="#F3DFD8"/>
</svg>
