<svg width="29" height="28" viewBox="0 0 29 28" fill="none" xmlns="http://www.w3.org/2000/svg">
<path d="M10.9852 14.0001C10.9852 11.8524 12.7268 10.1109 14.8758 10.1109C17.0248 10.1109 18.7673 11.8524 18.7673 14.0001C18.7673 16.1478 17.0248 17.8893 14.8758 17.8893C12.7268 17.8893 10.9852 16.1478 10.9852 14.0001ZM8.88151 14.0001C8.88151 17.3088 11.5651 19.9908 14.8758 19.9908C18.1864 19.9908 20.8701 17.3088 20.8701 14.0001C20.8701 10.6915 18.1864 8.00945 14.8758 8.00945C11.5651 8.00945 8.88151 10.6915 8.88151 14.0001ZM19.7065 7.77192C19.7064 8.04881 19.7885 8.31952 19.9423 8.54981C20.0961 8.7801 20.3148 8.95963 20.5708 9.06569C20.8267 9.17176 21.1083 9.1996 21.3801 9.14569C21.6519 9.09178 21.9015 8.95854 22.0975 8.76282C22.2935 8.56711 22.427 8.31771 22.4812 8.04616C22.5353 7.77461 22.5077 7.4931 22.4018 7.23724C22.2958 6.98138 22.1164 6.76266 21.8861 6.60874C21.6558 6.45481 21.385 6.3726 21.1079 6.37249H21.1074C20.736 6.37266 20.3799 6.52014 20.1172 6.78253C19.8545 7.04492 19.7068 7.40077 19.7065 7.77192ZM10.1596 23.4965C9.0215 23.4447 8.40289 23.2552 7.99179 23.0952C7.44677 22.8831 7.0579 22.6305 6.64905 22.2225C6.24019 21.8144 5.9871 21.4262 5.77586 20.8815C5.6156 20.4708 5.42602 19.8524 5.37428 18.7149C5.31769 17.4852 5.30639 17.1158 5.30639 14.0002C5.30639 10.8847 5.31862 10.5163 5.37428 9.2855C5.42612 8.14805 5.6171 7.53084 5.77586 7.11896C5.98804 6.57427 6.24075 6.18563 6.64905 5.77702C7.05734 5.36841 7.44584 5.11548 7.99179 4.90436C8.40271 4.7442 9.0215 4.55473 10.1596 4.50302C11.3901 4.44646 11.7598 4.43517 14.8758 4.43517C17.9918 4.43517 18.3618 4.4474 19.5933 4.50302C20.7315 4.55482 21.349 4.74569 21.7612 4.90436C22.3062 5.11548 22.6951 5.36897 23.1039 5.77702C23.5128 6.18507 23.7649 6.57427 23.9771 7.11896C24.1374 7.52963 24.3269 8.14805 24.3787 9.2855C24.4353 10.5163 24.4466 10.8847 24.4466 14.0002C24.4466 17.1158 24.4353 17.4842 24.3787 18.7149C24.3268 19.8524 24.1363 20.4706 23.9771 20.8815C23.7649 21.4262 23.5122 21.8148 23.1039 22.2225C22.6956 22.6302 22.3062 22.8831 21.7612 23.0952C21.3503 23.2553 20.7315 23.4448 19.5933 23.4965C18.3628 23.5531 17.9932 23.5643 14.8758 23.5643C11.7584 23.5643 11.3898 23.5531 10.1596 23.4965ZM10.063 2.40415C8.82025 2.46071 7.97106 2.65764 7.22946 2.94604C6.46143 3.24387 5.81125 3.64343 5.16154 4.29172C4.51184 4.94001 4.11307 5.59082 3.81506 6.35839C3.52649 7.10002 3.32944 7.94823 3.27284 9.19021C3.21532 10.4342 3.20215 10.8318 3.20215 14.0001C3.20215 17.1684 3.21532 17.5661 3.27284 18.8101C3.32944 20.0521 3.52649 20.9002 3.81506 21.6419C4.11307 22.409 4.51193 23.0605 5.16154 23.7085C5.81116 24.3566 6.46143 24.7556 7.22946 25.0542C7.97246 25.3426 8.82025 25.5396 10.063 25.5961C11.3083 25.6527 11.7056 25.6668 14.8758 25.6668C18.046 25.6668 18.4439 25.6536 19.6886 25.5961C20.9314 25.5396 21.78 25.3426 22.5221 25.0542C23.2897 24.7556 23.9403 24.3568 24.59 23.7085C25.2397 23.0603 25.6377 22.409 25.9365 21.6419C26.2251 20.9002 26.4231 20.052 26.4787 18.8101C26.5353 17.5652 26.5485 17.1684 26.5485 14.0001C26.5485 10.8318 26.5353 10.4342 26.4787 9.19021C26.4221 7.94813 26.2251 7.09955 25.9365 6.35839C25.6377 5.59129 25.2387 4.94104 24.59 4.29172C23.9413 3.6424 23.2897 3.24387 22.523 2.94604C21.78 2.65764 20.9313 2.45978 19.6895 2.40415C18.4448 2.34759 18.0469 2.3335 14.8767 2.3335C11.7065 2.3335 11.3083 2.34666 10.063 2.40415Z" fill="#CE7D63"/>
<path d="M10.9852 14.0001C10.9852 11.8524 12.7268 10.1109 14.8758 10.1109C17.0248 10.1109 18.7673 11.8524 18.7673 14.0001C18.7673 16.1478 17.0248 17.8893 14.8758 17.8893C12.7268 17.8893 10.9852 16.1478 10.9852 14.0001ZM8.88151 14.0001C8.88151 17.3088 11.5651 19.9908 14.8758 19.9908C18.1864 19.9908 20.8701 17.3088 20.8701 14.0001C20.8701 10.6915 18.1864 8.00945 14.8758 8.00945C11.5651 8.00945 8.88151 10.6915 8.88151 14.0001ZM19.7065 7.77192C19.7064 8.04881 19.7885 8.31952 19.9423 8.54981C20.0961 8.7801 20.3148 8.95963 20.5708 9.06569C20.8267 9.17176 21.1083 9.1996 21.3801 9.14569C21.6519 9.09178 21.9015 8.95854 22.0975 8.76282C22.2935 8.56711 22.427 8.31771 22.4812 8.04616C22.5353 7.77461 22.5077 7.4931 22.4018 7.23724C22.2958 6.98138 22.1164 6.76266 21.8861 6.60874C21.6558 6.45481 21.385 6.3726 21.1079 6.37249H21.1074C20.736 6.37266 20.3799 6.52014 20.1172 6.78253C19.8545 7.04492 19.7068 7.40077 19.7065 7.77192ZM10.1596 23.4965C9.0215 23.4447 8.40289 23.2552 7.99179 23.0952C7.44677 22.8831 7.0579 22.6305 6.64905 22.2225C6.24019 21.8144 5.9871 21.4262 5.77586 20.8815C5.6156 20.4708 5.42602 19.8524 5.37428 18.7149C5.31769 17.4852 5.30639 17.1158 5.30639 14.0002C5.30639 10.8847 5.31862 10.5163 5.37428 9.2855C5.42612 8.14805 5.6171 7.53084 5.77586 7.11896C5.98804 6.57427 6.24075 6.18563 6.64905 5.77702C7.05734 5.36841 7.44584 5.11548 7.99179 4.90436C8.40271 4.7442 9.0215 4.55473 10.1596 4.50302C11.3901 4.44646 11.7598 4.43517 14.8758 4.43517C17.9918 4.43517 18.3618 4.4474 19.5933 4.50302C20.7315 4.55482 21.349 4.74569 21.7612 4.90436C22.3062 5.11548 22.6951 5.36897 23.1039 5.77702C23.5128 6.18507 23.7649 6.57427 23.9771 7.11896C24.1374 7.52963 24.3269 8.14805 24.3787 9.2855C24.4353 10.5163 24.4466 10.8847 24.4466 14.0002C24.4466 17.1158 24.4353 17.4842 24.3787 18.7149C24.3268 19.8524 24.1363 20.4706 23.9771 20.8815C23.7649 21.4262 23.5122 21.8148 23.1039 22.2225C22.6956 22.6302 22.3062 22.8831 21.7612 23.0952C21.3503 23.2553 20.7315 23.4448 19.5933 23.4965C18.3628 23.5531 17.9932 23.5643 14.8758 23.5643C11.7584 23.5643 11.3898 23.5531 10.1596 23.4965ZM10.063 2.40415C8.82025 2.46071 7.97106 2.65764 7.22946 2.94604C6.46143 3.24387 5.81125 3.64343 5.16154 4.29172C4.51184 4.94001 4.11307 5.59082 3.81506 6.35839C3.52649 7.10002 3.32944 7.94823 3.27284 9.19021C3.21532 10.4342 3.20215 10.8318 3.20215 14.0001C3.20215 17.1684 3.21532 17.5661 3.27284 18.8101C3.32944 20.0521 3.52649 20.9002 3.81506 21.6419C4.11307 22.409 4.51193 23.0605 5.16154 23.7085C5.81116 24.3566 6.46143 24.7556 7.22946 25.0542C7.97246 25.3426 8.82025 25.5396 10.063 25.5961C11.3083 25.6527 11.7056 25.6668 14.8758 25.6668C18.046 25.6668 18.4439 25.6536 19.6886 25.5961C20.9314 25.5396 21.78 25.3426 22.5221 25.0542C23.2897 24.7556 23.9403 24.3568 24.59 23.7085C25.2397 23.0603 25.6377 22.409 25.9365 21.6419C26.2251 20.9002 26.4231 20.052 26.4787 18.8101C26.5353 17.5652 26.5485 17.1684 26.5485 14.0001C26.5485 10.8318 26.5353 10.4342 26.4787 9.19021C26.4221 7.94813 26.2251 7.09955 25.9365 6.35839C25.6377 5.59129 25.2387 4.94104 24.59 4.29172C23.9413 3.6424 23.2897 3.24387 22.523 2.94604C21.78 2.65764 20.9313 2.45978 19.6895 2.40415C18.4448 2.34759 18.0469 2.3335 14.8767 2.3335C11.7065 2.3335 11.3083 2.34666 10.063 2.40415Z" fill="#CE7D63"/>
</svg>
