<svg width="87" height="16" viewBox="0 0 87 16" fill="none" xmlns="http://www.w3.org/2000/svg">
<path d="M86.9021 16H84.704V6.31524H78.5785V16H76.3916V4.11719H78.5785V6.21482C78.5934 5.92472 78.6603 5.65322 78.7793 5.40031C78.8983 5.13997 79.0545 4.91682 79.2479 4.73086C79.4488 4.53746 79.6794 4.38869 79.9397 4.28455C80.2001 4.17298 80.479 4.11719 80.7765 4.11719H84.704C85.009 4.11719 85.2954 4.17669 85.5631 4.29571C85.8309 4.40729 86.0615 4.56349 86.2549 4.76433C86.4558 4.95773 86.612 5.18832 86.7235 5.4561C86.8426 5.72388 86.9021 6.01026 86.9021 6.31524V16Z" fill="#F3DFD8"/>
<path d="M72.721 11.1799H64.8549V13.802H72.721V16H64.8549C64.5573 16 64.2747 15.9442 64.0069 15.8327C63.7391 15.7137 63.5048 15.5574 63.304 15.364C63.1106 15.1632 62.9543 14.9289 62.8353 14.6611C62.7238 14.3933 62.668 14.107 62.668 13.802V6.31524C62.668 6.01026 62.7238 5.72388 62.8353 5.4561C62.9543 5.18832 63.1106 4.95773 63.304 4.76433C63.5048 4.56349 63.7391 4.40729 64.0069 4.29571C64.2747 4.17669 64.5573 4.11719 64.8549 4.11719H70.5229C70.8279 4.11719 71.1143 4.17669 71.3821 4.29571C71.6498 4.40729 71.8804 4.56349 72.0738 4.76433C72.2747 4.95773 72.4309 5.18832 72.5424 5.4561C72.6615 5.72388 72.721 6.01026 72.721 6.31524V11.1799ZM64.8549 6.31524V8.9819H70.5229V6.31524H64.8549Z" fill="#F3DFD8"/>
<path d="M45.5293 2.28731C45.5293 1.9749 45.5888 1.68108 45.7078 1.40586C45.8268 1.1232 45.9905 0.88145 46.1988 0.680614C46.407 0.472338 46.6488 0.308694 46.924 0.189679C47.2067 0.0632264 47.5042 0 47.8166 0H56.4972C56.8096 0 57.1034 0.0632264 57.3787 0.189679C57.6613 0.308694 57.9068 0.472338 58.1151 0.680614C58.3233 0.88145 58.487 1.1232 58.606 1.40586C58.725 1.68108 58.7845 1.9749 58.7845 2.28731V4.35146H56.4972V2.28731H47.8166V13.7127H56.4972V9.82985H52.1569V7.54254H58.7845V13.7127C58.7845 14.0251 58.725 14.3226 58.606 14.6053C58.487 14.8805 58.3233 15.1223 58.1151 15.3305C57.9068 15.5388 57.6613 15.7025 57.3787 15.8215C57.1034 15.9405 56.8096 16 56.4972 16H47.8166C47.5042 16 47.2067 15.9405 46.924 15.8215C46.6488 15.7025 46.407 15.5388 46.1988 15.3305C45.9905 15.1223 45.8268 14.8805 45.7078 14.6053C45.5888 14.3226 45.5293 14.0251 45.5293 13.7127V2.28731Z" fill="#F3DFD8"/>
<path d="M42.5845 4.11719L38.2665 9.91914L42.7854 16H40.1299L36.9388 11.7044L33.7366 16H31.0811L35.611 9.91914L31.293 4.11719H33.9374L36.9388 8.13392L39.929 4.11719H42.5845Z" fill="#F3DFD8"/>
<path d="M28.5589 11.1799H20.6927V13.802H28.5589V16H20.6927C20.3952 16 20.1126 15.9442 19.8448 15.8327C19.577 15.7137 19.3427 15.5574 19.1418 15.364C18.9484 15.1632 18.7922 14.9289 18.6732 14.6611C18.5616 14.3933 18.5059 14.107 18.5059 13.802V6.31524C18.5059 6.01026 18.5616 5.72388 18.6732 5.4561C18.7922 5.18832 18.9484 4.95773 19.1418 4.76433C19.3427 4.56349 19.577 4.40729 19.8448 4.29571C20.1126 4.17669 20.3952 4.11719 20.6927 4.11719H26.3608C26.6658 4.11719 26.9522 4.17669 27.2199 4.29571C27.4877 4.40729 27.7183 4.56349 27.9117 4.76433C28.1126 4.95773 28.2688 5.18832 28.3803 5.4561C28.4993 5.72388 28.5589 6.01026 28.5589 6.31524V11.1799ZM20.6927 6.31524V8.9819H26.3608V6.31524H20.6927Z" fill="#F3DFD8"/>
<path d="M2.71797 16H0.430664V0H2.71797L12.3358 12.4073V0H14.6231V16H12.3358L2.71797 3.59275V16Z" fill="#F3DFD8"/>
</svg>
